<svg xmlns="http://www.w3.org/2000/svg" xmlns:xlink="http://www.w3.org/1999/xlink" version="1.1" x="0px" y="0px" viewBox="0 0 512 640" style="enable-background:new 0 0 512 512;" xml:space="preserve"><style type="text/css">
	.st0{display:none;}
	.st1{display:inline;}
	.st2{fill:#FFFFFF;stroke:#000000;stroke-width:0.1;stroke-miterlimit:10;}
	.st3{fill:none;stroke:#000000;stroke-width:0.1;stroke-miterlimit:10;}
</style><g class="st0"><g class="st1"><rect class="st2" width="512" height="512"/><line class="st3" x1="0" y1="496" x2="512" y2="496"/><line class="st3" x1="0" y1="480" x2="512" y2="480"/><line class="st3" x1="0" y1="464" x2="512" y2="464"/><line class="st3" x1="0" y1="448" x2="512" y2="448"/><line class="st3" x1="0" y1="432" x2="512" y2="432"/><line class="st3" x1="0" y1="416" x2="512" y2="416"/><line class="st3" x1="0" y1="400" x2="512" y2="400"/><line class="st3" x1="0" y1="384" x2="512" y2="384"/><line class="st3" x1="0" y1="368" x2="512" y2="368"/><line class="st3" x1="0" y1="352" x2="512" y2="352"/><line class="st3" x1="0" y1="336" x2="512" y2="336"/><line class="st3" x1="0" y1="320" x2="512" y2="320"/><line class="st3" x1="0" y1="304" x2="512" y2="304"/><line class="st3" x1="0" y1="288" x2="512" y2="288"/><line class="st3" x1="0" y1="272" x2="512" y2="272"/><line class="st3" x1="0" y1="256" x2="512" y2="256"/><line class="st3" x1="0" y1="240" x2="512" y2="240"/><line class="st3" x1="0" y1="224" x2="512" y2="224"/><line class="st3" x1="0" y1="208" x2="512" y2="208"/><line class="st3" x1="0" y1="192" x2="512" y2="192"/><line class="st3" x1="0" y1="176" x2="512" y2="176"/><line class="st3" x1="0" y1="160" x2="512" y2="160"/><line class="st3" x1="0" y1="144" x2="512" y2="144"/><line class="st3" x1="0" y1="128" x2="512" y2="128"/><line class="st3" x1="0" y1="112" x2="512" y2="112"/><line class="st3" x1="0" y1="96" x2="512" y2="96"/><line class="st3" x1="0" y1="80" x2="512" y2="80"/><line class="st3" x1="0" y1="64" x2="512" y2="64"/><line class="st3" x1="0" y1="48" x2="512" y2="48"/><line class="st3" x1="0" y1="32" x2="512" y2="32"/><line class="st3" x1="0" y1="16" x2="512" y2="16"/><line class="st3" x1="496" y1="0" x2="496" y2="512"/><line class="st3" x1="480" y1="0" x2="480" y2="512"/><line class="st3" x1="464" y1="0" x2="464" y2="512"/><line class="st3" x1="448" y1="0" x2="448" y2="512"/><line class="st3" x1="432" y1="0" x2="432" y2="512"/><line class="st3" x1="416" y1="0" x2="416" y2="512"/><line class="st3" x1="400" y1="0" x2="400" y2="512"/><line class="st3" x1="384" y1="0" x2="384" y2="512"/><line class="st3" x1="368" y1="0" x2="368" y2="512"/><line class="st3" x1="352" y1="0" x2="352" y2="512"/><line class="st3" x1="336" y1="0" x2="336" y2="512"/><line class="st3" x1="320" y1="0" x2="320" y2="512"/><line class="st3" x1="304" y1="0" x2="304" y2="512"/><line class="st3" x1="288" y1="0" x2="288" y2="512"/><line class="st3" x1="272" y1="0" x2="272" y2="512"/><line class="st3" x1="256" y1="0" x2="256" y2="512"/><line class="st3" x1="240" y1="0" x2="240" y2="512"/><line class="st3" x1="224" y1="0" x2="224" y2="512"/><line class="st3" x1="208" y1="0" x2="208" y2="512"/><line class="st3" x1="192" y1="0" x2="192" y2="512"/><line class="st3" x1="176" y1="0" x2="176" y2="512"/><line class="st3" x1="160" y1="0" x2="160" y2="512"/><line class="st3" x1="144" y1="0" x2="144" y2="512"/><line class="st3" x1="128" y1="0" x2="128" y2="512"/><line class="st3" x1="112" y1="0" x2="112" y2="512"/><line class="st3" x1="96" y1="0" x2="96" y2="512"/><line class="st3" x1="80" y1="0" x2="80" y2="512"/><line class="st3" x1="64" y1="0" x2="64" y2="512"/><line class="st3" x1="48" y1="0" x2="48" y2="512"/><line class="st3" x1="32" y1="0" x2="32" y2="512"/><line class="st3" x1="16" y1="0" x2="16" y2="512"/></g></g><g><path d="M256,506c-66.8,0-129.6-26-176.8-73.2S6,322.8,6,256S32,126.4,79.2,79.2S189.2,6,256,6s129.6,26,176.8,73.2   S506,189.2,506,256s-26,129.6-73.2,176.8S322.8,506,256,506z M256,22C127,22,22,127,22,256s105,234,234,234s234-105,234-234   S385,22,256,22z"/></g><path d="M388.9,355.9l-0.2-41.7c0-11.8-9.6-21.4-21.4-21.4h-20.6v-42.3c0-11.4-9.3-20.7-20.7-20.7h-63.2v-28.8l20-20l0.7-0.7  c8.3-9,8-22.8-0.7-31.3c-7.1-7.1-18.1-8.6-26.7-4c-8.8-4.6-19.7-3.1-26.7,4c-8.6,8.6-8.9,22.2-0.8,31.1c0.3,0.4,0.7,0.8,1.2,1.2  l19.3,19.3v29.2h-63.3c-11.4,0-20.7,9.3-20.7,20.7v42.3h-20.7c-11.8,0-21.4,9.6-21.4,21.4v41.7H106v13.7h300v-13.7H388.9z   M273.3,158.7c3.3,3.2,3.5,8.5,0.5,12.1l-17.5,17.5L238.8,171c-3.3-3.5-3.1-8.9,0.4-12.3l0,0c1.7-1.7,4-2.6,6.3-2.6  c2.2,0,4.3,0.8,6,2.3l4.6,4.3l4.6-4.3C264.4,155.1,269.7,155.2,273.3,158.7z M178.8,292.9v-42.3c0-3.8,3.1-7,7-7h140.3  c3.8,0,7,3.1,7,7v42.3H178.8z M375.2,355.9H136.8v-41.7c0-4.3,3.4-7.6,7.6-7.6h222.9c4.3,0,7.6,3.4,7.6,7.7L375.2,355.9z"/><text x="0" y="527" fill="#000000" font-size="5px" font-weight="bold" font-family="'Helvetica Neue', Helvetica, Arial-Unicode, Arial, Sans-serif">Created by SBTS</text><text x="0" y="532" fill="#000000" font-size="5px" font-weight="bold" font-family="'Helvetica Neue', Helvetica, Arial-Unicode, Arial, Sans-serif">from the Noun Project</text></svg>