<?xml version="1.0" standalone="no"?>
<!DOCTYPE svg PUBLIC "-//W3C//DTD SVG 20010904//EN"
 "http://www.w3.org/TR/2001/REC-SVG-20010904/DTD/svg10.dtd">
<svg version="1.0" xmlns="http://www.w3.org/2000/svg"
 width="1369.000000pt" height="299.000000pt" viewBox="0 0 1369.000000 299.000000"
 preserveAspectRatio="xMidYMid meet">
<metadata>
Created by potrace 1.15, written by Peter Selinger 2001-2017
</metadata>
<g transform="translate(0.000000,299.000000) scale(0.100000,-0.100000)"
fill="#000000" stroke="none">
<path d="M4072 2961 c-166 -78 -330 -372 -402 -723 -12 -57 -23 -113 -26 -125
-4 -22 -10 -23 -83 -23 -63 0 -83 -4 -104 -20 -33 -26 -50 -80 -42 -129 10
-59 34 -75 120 -79 l73 -4 5 -207 c4 -164 9 -221 25 -282 42 -158 113 -259
217 -310 165 -81 380 -54 519 64 l39 33 56 -57 c46 -47 67 -60 115 -74 123
-36 234 0 329 105 l56 62 20 -40 c28 -56 84 -108 137 -128 98 -37 213 9 352
141 84 79 212 246 258 338 13 26 28 47 33 47 13 0 85 -99 115 -157 14 -28 28
-69 32 -91 l6 -39 -68 9 c-141 19 -224 -31 -224 -136 0 -80 47 -134 139 -162
202 -61 414 91 437 312 12 110 -3 142 -193 415 -55 78 -57 117 -8 235 39 95
42 116 18 135 -26 23 -150 18 -198 -7 -44 -22 -41 -17 -184 -314 -133 -277
-306 -490 -397 -490 -74 0 -79 64 -28 340 43 230 53 311 42 341 -13 37 -53 52
-133 47 -67 -3 -67 -3 -80 29 -23 54 -69 65 -177 42 -246 -51 -465 -319 -494
-605 -7 -63 -8 -66 -59 -109 -70 -61 -127 -85 -199 -85 -116 0 -181 58 -213
189 -16 68 -28 300 -19 363 l7 46 192 4 c169 3 197 6 237 24 64 30 83 55 88
118 6 79 -7 86 -176 86 l-134 0 71 76 c123 132 192 277 211 446 17 147 -22
290 -93 340 -45 32 -155 37 -215 9z m82 -213 c21 -30 21 -164 0 -243 -8 -33
-31 -92 -50 -132 -36 -75 -136 -208 -173 -231 -21 -12 -21 -11 -15 30 26 182
92 435 134 518 23 44 56 80 75 80 8 0 21 -10 29 -22z m836 -908 c0 -51 -94
-458 -115 -500 -32 -63 -77 -100 -121 -100 -74 0 -104 42 -104 147 1 210 125
417 280 464 44 13 60 10 60 -11z"/>
<path d="M925 2919 c-427 -21 -679 -97 -814 -244 -72 -80 -95 -144 -95 -275
-1 -123 22 -194 80 -254 30 -31 41 -36 80 -36 54 0 92 18 128 60 32 39 32 44
-1 116 -19 41 -26 75 -26 115 0 155 134 229 447 245 l129 7 -6 -24 c-20 -82
-119 -607 -137 -724 -11 -77 -34 -221 -50 -320 -41 -254 -62 -433 -54 -469 11
-49 32 -74 80 -92 85 -32 196 1 227 69 8 17 19 88 26 157 6 69 25 222 42 340
45 316 177 1051 191 1066 4 3 120 0 260 -8 139 -7 299 -13 355 -13 98 0 104 1
129 27 21 21 28 39 32 82 4 53 3 57 -30 90 -55 55 -150 72 -478 86 -239 10
-298 10 -515 -1z"/>
<path d="M7268 2905 c-137 -34 -274 -134 -378 -275 -89 -120 -104 -197 -51
-251 42 -42 67 -38 115 18 183 214 317 290 377 216 20 -27 21 -35 15 -153 -6
-135 -52 -465 -116 -845 -50 -291 -62 -481 -36 -537 29 -61 132 -87 212 -53
50 21 68 70 99 275 114 750 293 1195 528 1309 54 26 142 28 176 5 77 -55 69
-193 -50 -841 -100 -549 -108 -665 -50 -724 50 -49 164 -51 221 -3 39 33 52
82 85 309 60 411 138 705 249 941 102 214 226 336 344 336 37 0 50 -6 76 -31
l31 -31 0 -113 c-1 -101 -7 -142 -67 -412 -37 -165 -74 -340 -82 -390 -49
-281 -21 -434 101 -545 124 -113 321 -130 499 -43 30 15 71 41 91 58 l36 31
56 -57 c46 -47 67 -60 115 -74 123 -36 234 0 329 105 l56 62 20 -40 c28 -56
84 -108 137 -128 82 -31 181 -3 292 86 l52 41 10 -28 c37 -102 109 -138 194
-98 43 21 59 52 97 186 58 211 142 391 220 472 55 57 90 54 80 -6 -1 -5 -2
-48 -3 -95 -1 -71 3 -95 20 -128 27 -53 72 -90 125 -105 43 -11 177 -8 210 6
14 6 17 2 17 -21 0 -85 49 -192 113 -251 103 -95 255 -95 362 -1 l48 43 -6
-40 c-5 -27 -15 -46 -34 -60 -132 -96 -349 -302 -421 -400 -205 -279 -186
-558 42 -616 95 -24 201 5 286 79 124 106 246 391 325 762 14 69 30 131 34
139 13 25 364 257 368 243 3 -7 19 -34 37 -60 91 -132 263 -190 431 -146 205
53 353 257 371 511 16 220 -71 410 -224 487 -72 36 -174 51 -252 38 -234 -42
-389 -239 -416 -529 l-7 -78 -129 -93 c-71 -52 -131 -92 -133 -90 -1 1 19 138
46 303 27 165 49 315 49 333 0 22 -8 41 -25 58 -24 24 -32 25 -101 23 l-76 -4
-13 32 c-23 54 -69 65 -177 42 -168 -35 -335 -179 -424 -364 -25 -51 -43 -75
-66 -88 -56 -30 -99 -18 -111 32 -3 13 3 74 13 135 25 143 25 192 0 234 -74
121 -290 55 -440 -134 -66 -83 -111 -158 -157 -264 -18 -41 -33 -66 -33 -55 0
39 21 151 57 302 41 175 40 199 -13 209 -78 14 -171 -18 -204 -72 -41 -65 -86
-282 -106 -508 -6 -65 -9 -72 -52 -119 -100 -107 -173 -135 -208 -82 -21 32
-15 116 22 315 43 230 53 311 42 341 -13 37 -53 52 -133 47 -67 -3 -67 -3 -80
29 -23 54 -69 65 -177 42 -246 -51 -465 -319 -494 -605 -6 -61 -9 -67 -49 -99
-61 -50 -121 -75 -185 -75 -73 0 -115 26 -142 87 -34 78 -23 181 71 617 45
209 86 418 90 466 23 221 -41 381 -178 444 -65 29 -220 28 -305 -3 -164 -59
-303 -213 -397 -441 -17 -41 -32 -76 -33 -77 -1 -2 0 50 2 113 7 179 -24 282
-108 358 -52 47 -93 65 -169 72 -117 13 -249 -35 -367 -132 -86 -70 -193 -242
-269 -434 -14 -36 -24 -54 -21 -40 79 410 16 595 -204 606 -36 2 -91 -3 -122
-11z m3002 -1065 c0 -51 -94 -458 -115 -500 -32 -63 -77 -100 -121 -100 -74 0
-104 42 -104 147 1 210 125 417 280 464 44 13 60 10 60 -11z m2070 13 c-1 -32
-84 -438 -97 -478 -10 -27 -36 -69 -59 -92 -34 -36 -47 -43 -78 -43 -76 0
-106 41 -106 147 1 206 116 405 267 459 43 15 73 18 73 7z m980 -51 c14 -10
36 -40 50 -68 23 -44 25 -61 25 -174 0 -124 -1 -127 -35 -195 -40 -80 -70
-105 -131 -112 -59 -6 -105 25 -139 92 -22 44 -25 63 -25 160 0 76 6 128 18
167 40 130 152 192 237 130z m-1169 -1143 c-59 -229 -136 -391 -202 -428 -40
-22 -76 -8 -88 35 -20 73 23 194 110 305 43 54 200 211 206 205 2 -2 -10 -54
-26 -117z"/>
<path d="M1755 2057 c-87 -23 -148 -58 -221 -131 -114 -114 -165 -248 -166
-437 0 -265 146 -452 373 -476 213 -22 404 122 483 365 14 42 22 52 40 52 13
0 51 3 85 6 l61 7 0 -59 c0 -93 18 -229 38 -281 30 -81 105 -113 187 -79 42
18 55 42 94 181 85 297 219 537 287 511 14 -5 16 -19 12 -94 -7 -136 13 -191
84 -228 97 -50 250 41 303 181 33 84 0 156 -80 177 l-41 11 13 80 c16 100 6
151 -37 190 -26 23 -39 27 -89 27 -161 0 -349 -182 -470 -455 -17 -38 -31 -64
-31 -57 0 34 25 170 56 296 51 209 49 216 -56 216 -137 0 -178 -52 -227 -287
-11 -53 -23 -85 -33 -89 -8 -3 -48 -8 -87 -11 -57 -5 -73 -3 -76 8 -3 8 -10
37 -16 64 -31 132 -135 263 -238 300 -64 22 -185 28 -248 12z m107 -309 c6
-102 32 -165 94 -229 l46 -47 -16 -54 c-31 -106 -99 -168 -185 -168 -53 0
-112 51 -138 118 -24 63 -23 215 1 294 29 90 106 168 167 168 26 0 27 -1 31
-82z"/>
</g>
</svg>
