<?xml version="1.0" encoding="UTF-8" standalone="no"?>
<!-- Created with Inkscape (http://www.inkscape.org/) -->

<svg
   xmlns:dc="http://purl.org/dc/elements/1.1/"
   xmlns:cc="http://creativecommons.org/ns#"
   xmlns:rdf="http://www.w3.org/1999/02/22-rdf-syntax-ns#"
   xmlns:svg="http://www.w3.org/2000/svg"
   xmlns="http://www.w3.org/2000/svg"
   xmlns:sodipodi="http://sodipodi.sourceforge.net/DTD/sodipodi-0.dtd"
   xmlns:inkscape="http://www.inkscape.org/namespaces/inkscape"
   width="9cm"
   height="5cm"
   viewBox="0 0 89.999997 50"
   version="1.1"
   id="svg8"
   inkscape:version="0.92.3 (2405546, 2018-03-11)"
   sodipodi:docname="tarjeta.svg"
   inkscape:export-filename="/home/ealmansi/Desktop/tarjeta.png"
   inkscape:export-xdpi="300"
   inkscape:export-ydpi="300">
  <defs
     id="defs2" />
  <sodipodi:namedview
     id="base"
     pagecolor="#ffffff"
     bordercolor="#666666"
     borderopacity="1.0"
     inkscape:pageopacity="0.0"
     inkscape:pageshadow="2"
     inkscape:zoom="2.8"
     inkscape:cx="102.19887"
     inkscape:cy="59.874766"
     inkscape:document-units="cm"
     inkscape:current-layer="layer1"
     showgrid="true"
     units="cm"
     inkscape:window-width="3840"
     inkscape:window-height="2031"
     inkscape:window-x="0"
     inkscape:window-y="55"
     inkscape:window-maximized="1">
    <inkscape:grid
       type="xygrid"
       id="grid1328" />
  </sodipodi:namedview>
  <metadata
     id="metadata5">
    <rdf:RDF>
      <cc:Work
         rdf:about="">
        <dc:format>image/svg+xml</dc:format>
        <dc:type
           rdf:resource="http://purl.org/dc/dcmitype/StillImage" />
        <dc:title></dc:title>
      </cc:Work>
    </rdf:RDF>
  </metadata>
  <g
     inkscape:groupmode="layer"
     id="layer3"
     inkscape:label="Layer 2"
     style="display:inline">
    <rect
       style="fill:#ffffff;fill-opacity:1;stroke-width:0.26458332"
       id="rect1234"
       width="122.46429"
       height="77.7686"
       x="-17.670387"
       y="-9.8147316" />
  </g>
  <g
     inkscape:label="Layer 1"
     inkscape:groupmode="layer"
     id="layer1"
     transform="translate(0,-246.99986)"
     style="display:inline">
    <g
       id="g1227"
       transform="matrix(0.125,0,0,0.125,71.178821,228.95405)">
      <g
         transform="matrix(0.26458333,0,0,0.26458333,-35.954984,192.01697)"
         id="g1153">
        <g
           class="st0"
           id="g4031"
           style="display:none"
           transform="translate(-6,-6)">
          <g
             class="st1"
             id="g4029"
             style="display:inline">
            <rect
               class="st2"
               width="512"
               height="512"
               id="rect3903"
               x="0"
               y="0"
               style="fill:#ffffff;stroke:#000000;stroke-width:0.1;stroke-miterlimit:10" />
            <line
               class="st3"
               x1="0"
               y1="496"
               x2="512"
               y2="496"
               id="line3905"
               style="fill:none;stroke:#000000;stroke-width:0.1;stroke-miterlimit:10" />
            <line
               class="st3"
               x1="0"
               y1="480"
               x2="512"
               y2="480"
               id="line3907"
               style="fill:none;stroke:#000000;stroke-width:0.1;stroke-miterlimit:10" />
            <line
               class="st3"
               x1="0"
               y1="464"
               x2="512"
               y2="464"
               id="line3909"
               style="fill:none;stroke:#000000;stroke-width:0.1;stroke-miterlimit:10" />
            <line
               class="st3"
               x1="0"
               y1="448"
               x2="512"
               y2="448"
               id="line3911"
               style="fill:none;stroke:#000000;stroke-width:0.1;stroke-miterlimit:10" />
            <line
               class="st3"
               x1="0"
               y1="432"
               x2="512"
               y2="432"
               id="line3913"
               style="fill:none;stroke:#000000;stroke-width:0.1;stroke-miterlimit:10" />
            <line
               class="st3"
               x1="0"
               y1="416"
               x2="512"
               y2="416"
               id="line3915"
               style="fill:none;stroke:#000000;stroke-width:0.1;stroke-miterlimit:10" />
            <line
               class="st3"
               x1="0"
               y1="400"
               x2="512"
               y2="400"
               id="line3917"
               style="fill:none;stroke:#000000;stroke-width:0.1;stroke-miterlimit:10" />
            <line
               class="st3"
               x1="0"
               y1="384"
               x2="512"
               y2="384"
               id="line3919"
               style="fill:none;stroke:#000000;stroke-width:0.1;stroke-miterlimit:10" />
            <line
               class="st3"
               x1="0"
               y1="368"
               x2="512"
               y2="368"
               id="line3921"
               style="fill:none;stroke:#000000;stroke-width:0.1;stroke-miterlimit:10" />
            <line
               class="st3"
               x1="0"
               y1="352"
               x2="512"
               y2="352"
               id="line3923"
               style="fill:none;stroke:#000000;stroke-width:0.1;stroke-miterlimit:10" />
            <line
               class="st3"
               x1="0"
               y1="336"
               x2="512"
               y2="336"
               id="line3925"
               style="fill:none;stroke:#000000;stroke-width:0.1;stroke-miterlimit:10" />
            <line
               class="st3"
               x1="0"
               y1="320"
               x2="512"
               y2="320"
               id="line3927"
               style="fill:none;stroke:#000000;stroke-width:0.1;stroke-miterlimit:10" />
            <line
               class="st3"
               x1="0"
               y1="304"
               x2="512"
               y2="304"
               id="line3929"
               style="fill:none;stroke:#000000;stroke-width:0.1;stroke-miterlimit:10" />
            <line
               class="st3"
               x1="0"
               y1="288"
               x2="512"
               y2="288"
               id="line3931"
               style="fill:none;stroke:#000000;stroke-width:0.1;stroke-miterlimit:10" />
            <line
               class="st3"
               x1="0"
               y1="272"
               x2="512"
               y2="272"
               id="line3933"
               style="fill:none;stroke:#000000;stroke-width:0.1;stroke-miterlimit:10" />
            <line
               class="st3"
               x1="0"
               y1="256"
               x2="512"
               y2="256"
               id="line3935"
               style="fill:none;stroke:#000000;stroke-width:0.1;stroke-miterlimit:10" />
            <line
               class="st3"
               x1="0"
               y1="240"
               x2="512"
               y2="240"
               id="line3937"
               style="fill:none;stroke:#000000;stroke-width:0.1;stroke-miterlimit:10" />
            <line
               class="st3"
               x1="0"
               y1="224"
               x2="512"
               y2="224"
               id="line3939"
               style="fill:none;stroke:#000000;stroke-width:0.1;stroke-miterlimit:10" />
            <line
               class="st3"
               x1="0"
               y1="208"
               x2="512"
               y2="208"
               id="line3941"
               style="fill:none;stroke:#000000;stroke-width:0.1;stroke-miterlimit:10" />
            <line
               class="st3"
               x1="0"
               y1="192"
               x2="512"
               y2="192"
               id="line3943"
               style="fill:none;stroke:#000000;stroke-width:0.1;stroke-miterlimit:10" />
            <line
               class="st3"
               x1="0"
               y1="176"
               x2="512"
               y2="176"
               id="line3945"
               style="fill:none;stroke:#000000;stroke-width:0.1;stroke-miterlimit:10" />
            <line
               class="st3"
               x1="0"
               y1="160"
               x2="512"
               y2="160"
               id="line3947"
               style="fill:none;stroke:#000000;stroke-width:0.1;stroke-miterlimit:10" />
            <line
               class="st3"
               x1="0"
               y1="144"
               x2="512"
               y2="144"
               id="line3949"
               style="fill:none;stroke:#000000;stroke-width:0.1;stroke-miterlimit:10" />
            <line
               class="st3"
               x1="0"
               y1="128"
               x2="512"
               y2="128"
               id="line3951"
               style="fill:none;stroke:#000000;stroke-width:0.1;stroke-miterlimit:10" />
            <line
               class="st3"
               x1="0"
               y1="112"
               x2="512"
               y2="112"
               id="line3953"
               style="fill:none;stroke:#000000;stroke-width:0.1;stroke-miterlimit:10" />
            <line
               class="st3"
               x1="0"
               y1="96"
               x2="512"
               y2="96"
               id="line3955"
               style="fill:none;stroke:#000000;stroke-width:0.1;stroke-miterlimit:10" />
            <line
               class="st3"
               x1="0"
               y1="80"
               x2="512"
               y2="80"
               id="line3957"
               style="fill:none;stroke:#000000;stroke-width:0.1;stroke-miterlimit:10" />
            <line
               class="st3"
               x1="0"
               y1="64"
               x2="512"
               y2="64"
               id="line3959"
               style="fill:none;stroke:#000000;stroke-width:0.1;stroke-miterlimit:10" />
            <line
               class="st3"
               x1="0"
               y1="48"
               x2="512"
               y2="48"
               id="line3961"
               style="fill:none;stroke:#000000;stroke-width:0.1;stroke-miterlimit:10" />
            <line
               class="st3"
               x1="0"
               y1="32"
               x2="512"
               y2="32"
               id="line3963"
               style="fill:none;stroke:#000000;stroke-width:0.1;stroke-miterlimit:10" />
            <line
               class="st3"
               x1="0"
               y1="16"
               x2="512"
               y2="16"
               id="line3965"
               style="fill:none;stroke:#000000;stroke-width:0.1;stroke-miterlimit:10" />
            <line
               class="st3"
               x1="496"
               y1="0"
               x2="496"
               y2="512"
               id="line3967"
               style="fill:none;stroke:#000000;stroke-width:0.1;stroke-miterlimit:10" />
            <line
               class="st3"
               x1="480"
               y1="0"
               x2="480"
               y2="512"
               id="line3969"
               style="fill:none;stroke:#000000;stroke-width:0.1;stroke-miterlimit:10" />
            <line
               class="st3"
               x1="464"
               y1="0"
               x2="464"
               y2="512"
               id="line3971"
               style="fill:none;stroke:#000000;stroke-width:0.1;stroke-miterlimit:10" />
            <line
               class="st3"
               x1="448"
               y1="0"
               x2="448"
               y2="512"
               id="line3973"
               style="fill:none;stroke:#000000;stroke-width:0.1;stroke-miterlimit:10" />
            <line
               class="st3"
               x1="432"
               y1="0"
               x2="432"
               y2="512"
               id="line3975"
               style="fill:none;stroke:#000000;stroke-width:0.1;stroke-miterlimit:10" />
            <line
               class="st3"
               x1="416"
               y1="0"
               x2="416"
               y2="512"
               id="line3977"
               style="fill:none;stroke:#000000;stroke-width:0.1;stroke-miterlimit:10" />
            <line
               class="st3"
               x1="400"
               y1="0"
               x2="400"
               y2="512"
               id="line3979"
               style="fill:none;stroke:#000000;stroke-width:0.1;stroke-miterlimit:10" />
            <line
               class="st3"
               x1="384"
               y1="0"
               x2="384"
               y2="512"
               id="line3981"
               style="fill:none;stroke:#000000;stroke-width:0.1;stroke-miterlimit:10" />
            <line
               class="st3"
               x1="368"
               y1="0"
               x2="368"
               y2="512"
               id="line3983"
               style="fill:none;stroke:#000000;stroke-width:0.1;stroke-miterlimit:10" />
            <line
               class="st3"
               x1="352"
               y1="0"
               x2="352"
               y2="512"
               id="line3985"
               style="fill:none;stroke:#000000;stroke-width:0.1;stroke-miterlimit:10" />
            <line
               class="st3"
               x1="336"
               y1="0"
               x2="336"
               y2="512"
               id="line3987"
               style="fill:none;stroke:#000000;stroke-width:0.1;stroke-miterlimit:10" />
            <line
               class="st3"
               x1="320"
               y1="0"
               x2="320"
               y2="512"
               id="line3989"
               style="fill:none;stroke:#000000;stroke-width:0.1;stroke-miterlimit:10" />
            <line
               class="st3"
               x1="304"
               y1="0"
               x2="304"
               y2="512"
               id="line3991"
               style="fill:none;stroke:#000000;stroke-width:0.1;stroke-miterlimit:10" />
            <line
               class="st3"
               x1="288"
               y1="0"
               x2="288"
               y2="512"
               id="line3993"
               style="fill:none;stroke:#000000;stroke-width:0.1;stroke-miterlimit:10" />
            <line
               class="st3"
               x1="272"
               y1="0"
               x2="272"
               y2="512"
               id="line3995"
               style="fill:none;stroke:#000000;stroke-width:0.1;stroke-miterlimit:10" />
            <line
               class="st3"
               x1="256"
               y1="0"
               x2="256"
               y2="512"
               id="line3997"
               style="fill:none;stroke:#000000;stroke-width:0.1;stroke-miterlimit:10" />
            <line
               class="st3"
               x1="240"
               y1="0"
               x2="240"
               y2="512"
               id="line3999"
               style="fill:none;stroke:#000000;stroke-width:0.1;stroke-miterlimit:10" />
            <line
               class="st3"
               x1="224"
               y1="0"
               x2="224"
               y2="512"
               id="line4001"
               style="fill:none;stroke:#000000;stroke-width:0.1;stroke-miterlimit:10" />
            <line
               class="st3"
               x1="208"
               y1="0"
               x2="208"
               y2="512"
               id="line4003"
               style="fill:none;stroke:#000000;stroke-width:0.1;stroke-miterlimit:10" />
            <line
               class="st3"
               x1="192"
               y1="0"
               x2="192"
               y2="512"
               id="line4005"
               style="fill:none;stroke:#000000;stroke-width:0.1;stroke-miterlimit:10" />
            <line
               class="st3"
               x1="176"
               y1="0"
               x2="176"
               y2="512"
               id="line4007"
               style="fill:none;stroke:#000000;stroke-width:0.1;stroke-miterlimit:10" />
            <line
               class="st3"
               x1="160"
               y1="0"
               x2="160"
               y2="512"
               id="line4009"
               style="fill:none;stroke:#000000;stroke-width:0.1;stroke-miterlimit:10" />
            <line
               class="st3"
               x1="144"
               y1="0"
               x2="144"
               y2="512"
               id="line4011"
               style="fill:none;stroke:#000000;stroke-width:0.1;stroke-miterlimit:10" />
            <line
               class="st3"
               x1="128"
               y1="0"
               x2="128"
               y2="512"
               id="line4013"
               style="fill:none;stroke:#000000;stroke-width:0.1;stroke-miterlimit:10" />
            <line
               class="st3"
               x1="112"
               y1="0"
               x2="112"
               y2="512"
               id="line4015"
               style="fill:none;stroke:#000000;stroke-width:0.1;stroke-miterlimit:10" />
            <line
               class="st3"
               x1="96"
               y1="0"
               x2="96"
               y2="512"
               id="line4017"
               style="fill:none;stroke:#000000;stroke-width:0.1;stroke-miterlimit:10" />
            <line
               class="st3"
               x1="80"
               y1="0"
               x2="80"
               y2="512"
               id="line4019"
               style="fill:none;stroke:#000000;stroke-width:0.1;stroke-miterlimit:10" />
            <line
               class="st3"
               x1="64"
               y1="0"
               x2="64"
               y2="512"
               id="line4021"
               style="fill:none;stroke:#000000;stroke-width:0.1;stroke-miterlimit:10" />
            <line
               class="st3"
               x1="48"
               y1="0"
               x2="48"
               y2="512"
               id="line4023"
               style="fill:none;stroke:#000000;stroke-width:0.1;stroke-miterlimit:10" />
            <line
               class="st3"
               x1="32"
               y1="0"
               x2="32"
               y2="512"
               id="line4025"
               style="fill:none;stroke:#000000;stroke-width:0.1;stroke-miterlimit:10" />
            <line
               class="st3"
               x1="16"
               y1="0"
               x2="16"
               y2="512"
               id="line4027"
               style="fill:none;stroke:#000000;stroke-width:0.1;stroke-miterlimit:10" />
          </g>
        </g>
        <g
           id="g4035"
           transform="translate(-6,-6)"
           style="fill:#363636;fill-opacity:1">
          <path
             d="M 256,506 C 189.2,506 126.4,480 79.2,432.8 32,385.6 6,322.8 6,256 6,189.2 32,126.4 79.2,79.2 126.4,32 189.2,6 256,6 322.8,6 385.6,32 432.8,79.2 480,126.4 506,189.2 506,256 506,322.8 480,385.6 432.8,432.8 385.6,480 322.8,506 256,506 Z M 256,22 C 127,22 22,127 22,256 22,385 127,490 256,490 385,490 490,385 490,256 490,127 385,22 256,22 Z"
             id="path4033"
             inkscape:connector-curvature="0"
             style="fill:#363636;fill-opacity:1" />
        </g>
        <path
           d="m 382.9,349.9 -0.2,-41.7 c 0,-11.8 -9.6,-21.4 -21.4,-21.4 h -20.6 v -42.3 c 0,-11.4 -9.3,-20.7 -20.7,-20.7 H 256.8 V 195 l 20,-20 0.7,-0.7 c 8.3,-9 8,-22.8 -0.7,-31.3 -7.1,-7.1 -18.1,-8.6 -26.7,-4 -8.8,-4.6 -19.7,-3.1 -26.7,4 -8.6,8.6 -8.9,22.2 -0.8,31.1 0.3,0.4 0.7,0.8 1.2,1.2 l 19.3,19.3 v 29.2 h -63.3 c -11.4,0 -20.7,9.3 -20.7,20.7 v 42.3 h -20.7 c -11.8,0 -21.4,9.6 -21.4,21.4 v 41.7 h -17 v 13.7 H 400 V 349.9 Z M 267.3,152.7 c 3.3,3.2 3.5,8.5 0.5,12.1 L 250.3,182.3 232.8,165 c -3.3,-3.5 -3.1,-8.9 0.4,-12.3 v 0 c 1.7,-1.7 4,-2.6 6.3,-2.6 2.2,0 4.3,0.8 6,2.3 l 4.6,4.3 4.6,-4.3 c 3.7,-3.3 9,-3.2 12.6,0.3 z m -94.5,134.2 v -42.3 c 0,-3.8 3.1,-7 7,-7 h 140.3 c 3.8,0 7,3.1 7,7 v 42.3 z m 196.4,63 H 130.8 v -41.7 c 0,-4.3 3.4,-7.6 7.6,-7.6 h 222.9 c 4.3,0 7.6,3.4 7.6,7.7 z"
           id="path4037"
           inkscape:connector-curvature="0"
           style="fill:#363636;fill-opacity:1" />
        <path
           style="fill:#ffffff;fill-opacity:1;stroke-width:0.36056337"
           d="m 172.87785,264.76507 c 0.0957,-19.80665 0.16447,-22.01132 0.71838,-23.02253 0.79009,-1.4424 2.91274,-3.30169 4.17151,-3.65395 1.28737,-0.36027 143.10503,-0.36027 144.39241,0 1.36389,0.38168 3.53171,2.36353 4.11666,3.76349 0.39093,0.93564 0.48713,5.47611 0.48713,22.99155 v 21.82567 h -76.99595 -76.99595 z"
           id="path4588"
           inkscape:connector-curvature="0" />
        <path
           style="fill:#ffffff;fill-opacity:1;stroke-width:0.36056337"
           d="m 130.98595,328.22423 c 0.007,-20.05861 0.0532,-21.6433 0.66452,-22.98901 0.8258,-1.81778 2.86359,-3.6295 4.63601,-4.12171 0.93691,-0.26018 36.47686,-0.37885 113.87709,-0.38023 l 112.51512,-0.002 1.83285,0.91334 c 1.14462,0.57039 2.22011,1.47217 2.86417,2.40155 0.988,1.42569 1.04145,1.71672 1.2724,6.92891 0.13259,2.99239 0.25473,12.94493 0.27141,22.11676 l 0.0303,16.67606 H 249.96394 130.97803 Z"
           id="path4590"
           inkscape:connector-curvature="0" />
        <path
           style="fill:#ffaaaa;fill-opacity:1;stroke-width:0.36056337"
           d="m 241.0386,172.81539 c -6.55416,-6.41905 -9.27135,-9.32206 -9.69707,-10.36018 -2.34484,-5.71788 2.0121,-12.09687 8.24464,-12.07095 2.68276,0.0111 4.61473,1.01598 7.69377,4.00156 l 2.64922,2.5688 1.36951,-1.09395 c 0.75322,-0.60168 1.93739,-1.69064 2.63147,-2.41993 2.70777,-2.8451 6.9813,-3.95091 10.122,-2.61916 1.80204,0.76412 3.84226,2.64533 4.75915,4.38823 1.01066,1.92116 1.07255,5.59743 0.125,7.42568 -0.56949,1.09882 -18.12376,19.1198 -18.60908,19.10385 -0.10064,-0.003 -4.28052,-4.01909 -9.28861,-8.92395 z"
           id="path4596"
           inkscape:connector-curvature="0" />
      </g>
    </g>
    <text
       xml:space="preserve"
       style="font-style:normal;font-weight:normal;font-size:10.58333302px;line-height:1.25;font-family:sans-serif;letter-spacing:0px;word-spacing:0px;fill:#000000;fill-opacity:1;stroke:none;stroke-width:0.26458332"
       x="6.5965657"
       y="262.99396"
       id="text896"><tspan
         sodipodi:role="line"
         id="tspan894"
         x="6.5965657"
         y="262.99396"
         style="font-style:normal;font-variant:normal;font-weight:normal;font-stretch:normal;font-size:8.46666622px;font-family:Pacifico;-inkscape-font-specification:Pacifico;stroke-width:0.26458332">Tortas Margo</tspan></text>
    <g
       id="g1326"
       transform="translate(0,-1.5875)">
      <text
         id="text1483"
         y="268.99176"
         x="7.323288"
         style="font-style:normal;font-weight:normal;font-size:10.58333302px;line-height:1.25;font-family:sans-serif;letter-spacing:0px;word-spacing:0px;fill:#aaaaaa;fill-opacity:1;stroke:none;stroke-width:0.26458332"
         xml:space="preserve"><tspan
           style="font-style:normal;font-variant:normal;font-weight:normal;font-stretch:normal;font-size:3.52777767px;font-family:'Source Sans Pro';-inkscape-font-specification:'Source Sans Pro';fill:#aaaaaa;fill-opacity:1;stroke-width:0.26458332"
           y="268.99176"
           x="7.323288"
           id="tspan1481"
           sodipodi:role="line">Tortas ricas y accesibles.</tspan><tspan
           id="tspan1095"
           style="font-style:normal;font-variant:normal;font-weight:normal;font-stretch:normal;font-size:3.52777767px;font-family:'Source Sans Pro';-inkscape-font-specification:'Source Sans Pro';fill:#aaaaaa;fill-opacity:1;stroke-width:0.26458332"
           y="282.22092"
           x="7.323288"
           sodipodi:role="line" /><tspan
           id="tspan1093"
           style="font-style:normal;font-variant:normal;font-weight:normal;font-stretch:normal;font-size:3.52777767px;font-family:'Source Sans Pro';-inkscape-font-specification:'Source Sans Pro';fill:#aaaaaa;fill-opacity:1;stroke-width:0.26458332"
           y="295.4501"
           x="7.323288"
           sodipodi:role="line" /></text>
      <text
         xml:space="preserve"
         style="font-style:normal;font-weight:normal;font-size:10.58333302px;line-height:1.25;font-family:sans-serif;letter-spacing:0px;word-spacing:0px;fill:#aaaaaa;fill-opacity:1;stroke:none;stroke-width:0.26458332"
         x="7.323288"
         y="272.98471"
         id="text1103"><tspan
           sodipodi:role="line"
           x="7.323288"
           y="272.98471"
           style="font-style:normal;font-variant:normal;font-weight:normal;font-stretch:normal;font-size:3.52777767px;font-family:'Source Sans Pro';-inkscape-font-specification:'Source Sans Pro';fill:#aaaaaa;fill-opacity:1;stroke-width:0.26458332"
           id="tspan1101">También a domicilio.</tspan></text>
    </g>
    <g
       id="g1318"
       transform="translate(0,-2.1166667)">
      <g
         transform="translate(0,2.4108116)"
         id="g1294">
        <g
           id="g1264">
          <path
             style="fill:#aaaaaa;fill-opacity:1;stroke-width:0.0059673"
             inkscape:connector-curvature="0"
             d="m 10.076691,283.74568 c 0.02015,-0.0214 0.05013,-10e-4 0.05013,0.0323 v 1.40909 c 0,0.1826 -0.111102,0.33075 -0.2480536,0.33075 H 7.7289487 c -0.1369492,0 -0.2480554,-0.14815 -0.2480554,-0.33075 v -1.4084 c 0,-0.0345 0.029459,-0.0537 0.050128,-0.0323 0.115749,0.11987 0.2692442,0.27214 0.7963623,0.78273 0.1090443,0.10607 0.2930166,0.32938 0.4764738,0.32798 0.1844913,10e-4 0.3720837,-0.226 0.4769889,-0.32798 0.527117,-0.51059 0.6800872,-0.66356 0.7958467,-0.78344 z m -1.2728348,0.89025 c 0.1198906,0.003 0.2924989,-0.20121 0.3793188,-0.28527 0.685769,-0.66354 0.7379641,-0.72144 0.896101,-0.8868 0.02998,-0.031 0.04754,-0.0793 0.04754,-0.13014 v -0.13098 c 0,-0.1826 -0.111102,-0.33073 -0.2480542,-0.33073 H 7.7289424 c -0.1369492,0 -0.2480554,0.14815 -0.2480554,0.33073 v 0.13098 c 0,0.0509 0.017589,0.0985 0.047539,0.13014 0.1581357,0.16466 0.2103319,0.22326 0.896102,0.8868 0.086821,0.084 0.2594245,0.28801 0.3793176,0.28527 z"
             id="path988" />
          <text
             id="text1012"
             y="285.11835"
             x="10.931022"
             style="font-style:normal;font-variant:normal;font-weight:normal;font-stretch:normal;font-size:10.58333302px;line-height:1.25;font-family:'Source Sans Pro';-inkscape-font-specification:'Source Sans Pro';letter-spacing:0px;word-spacing:0px;fill:#777777;fill-opacity:1;stroke:none;stroke-width:0.26458332"
             xml:space="preserve"><tspan
               style="font-size:2.82222223px;fill:#777777;fill-opacity:1;stroke-width:0.26458332"
               y="285.11835"
               x="10.931022"
               id="tspan1010"
               sodipodi:role="line">info@tortasmargo.com</tspan></text>
        </g>
        <g
           id="g1269"
           transform="translate(31.75,-3.4962797)">
          <path
             style="fill:#aaaaaa;fill-opacity:1;stroke-width:0.00590566"
             inkscape:connector-curvature="0"
             d="m 9.7302695,286.66394 c -0.2474378,-0.24804 -0.5769618,-0.38447 -0.9271539,-0.38447 -0.7228284,0 -1.3110087,0.58824 -1.3110087,1.3111 0,0.23093 0.060241,0.45652 0.1747996,0.65556 l -0.1860195,0.67917 0.695067,-0.18249 c 0.1913366,0.10447 0.4068863,0.15946 0.62657,0.15946 h 6.681e-4 c 0.7222368,0 1.3234119,-0.58822 1.3234119,-1.3111 0,-0.35022 -0.1488145,-0.67916 -0.3962566,-0.92723 z m -0.9271539,2.01744 c -0.1960635,0 -0.3879902,-0.0527 -0.5551164,-0.15175 l -0.039564,-0.0237 -0.4121975,0.10808 0.1098475,-0.40219 -0.025987,-0.0413 c -0.1092415,-0.17364 -0.1665317,-0.37384 -0.1665317,-0.57996 0,-0.60062 0.4889683,-1.08962 1.0901433,-1.08962 0.2911387,0 0.5645601,0.11328 0.7700687,0.31951 0.2055101,0.2061 0.3318861,0.47954 0.331296,0.7707 0,0.60123 -0.5013729,1.09023 -1.1019549,1.09023 z m 0.5976298,-0.81619 c -0.03248,-0.0164 -0.1936986,-0.0957 -0.2238176,-0.10635 -0.030128,-0.0115 -0.051959,-0.0165 -0.073818,0.0164 -0.02186,0.0331 -0.084453,0.10635 -0.1039317,0.12872 -0.018902,0.0219 -0.038381,0.0248 -0.070875,0.009 -0.1925197,-0.0964 -0.3188957,-0.17187 -0.4458632,-0.3898 -0.033663,-0.0579 0.033663,-0.0538 0.09627,-0.17895 0.010677,-0.0219 0.00534,-0.0407 -0.00289,-0.0573 -0.00822,-0.0164 -0.073818,-0.17777 -0.1009883,-0.24334 -0.026564,-0.0636 -0.053748,-0.055 -0.073818,-0.056 -0.018902,-9e-4 -0.040747,-9e-4 -0.062593,-9e-4 -0.02186,0 -0.057283,0.007 -0.087411,0.0407 -0.030113,0.0332 -0.1145658,0.11227 -0.1145658,0.27344 0,0.16124 0.1175094,0.31714 0.1334678,0.339 0.016536,0.0219 0.2309036,0.35258 0.5598375,0.49492 0.2078707,0.0899 0.2893668,0.0974 0.3933029,0.0821 0.063184,-0.0101 0.1936985,-0.0791 0.2208654,-0.15587 0.02717,-0.0768 0.02717,-0.14242 0.018902,-0.15587 -0.00765,-0.0144 -0.029522,-0.0229 -0.062016,-0.0388 z"
             id="path977" />
          <text
             id="text1012-3"
             y="288.55475"
             x="10.990285"
             style="font-style:normal;font-variant:normal;font-weight:normal;font-stretch:normal;font-size:10.58333302px;line-height:1.25;font-family:'Source Sans Pro';-inkscape-font-specification:'Source Sans Pro';letter-spacing:0px;word-spacing:0px;fill:#777777;fill-opacity:1;stroke:none;stroke-width:0.26458332"
             xml:space="preserve"><tspan
               style="font-size:2.82222223px;fill:#777777;fill-opacity:1;stroke-width:0.26458332"
               y="288.55475"
               x="10.990285"
               id="tspan1010-6"
               sodipodi:role="line">+5491140954928</tspan></text>
        </g>
      </g>
      <g
         id="g1274">
        <path
           id="path999"
           d="m 7.8772455,292.04648 v -1.18339 H 7.480887 v -0.47026 h 0.3963585 v -0.37052 c 0,-0.40258 0.2459773,-0.62167 0.6051288,-0.62167 0.1720846,0 0.3198801,0.0126 0.3627715,0.0186 v 0.42065 H 8.5960637 c -0.1953384,0 -0.2330606,0.0931 -0.2330606,0.22892 v 0.32402 h 0.4408005 l -0.060454,0.47025 H 8.3630107 v 1.18339"
           inkscape:connector-curvature="0"
           style="fill:#aaaaaa;fill-opacity:1;stroke-width:0.00516765" />
        <text
           xml:space="preserve"
           style="font-style:normal;font-variant:normal;font-weight:normal;font-stretch:normal;font-size:10.58333302px;line-height:1.25;font-family:'Source Sans Pro';-inkscape-font-specification:'Source Sans Pro';letter-spacing:0px;word-spacing:0px;fill:#777777;fill-opacity:1;stroke:none;stroke-width:0.26458332"
           x="9.8464479"
           y="291.8486"
           id="text1012-7"><tspan
             sodipodi:role="line"
             id="tspan1010-5"
             x="9.8464479"
             y="291.8486"
             style="font-size:2.82222223px;fill:#777777;fill-opacity:1;stroke-width:0.26458332">facebook.com/tortasmargo</tspan></text>
      </g>
      <g
         transform="translate(0,4.7625002)"
         id="g1284">
        <g
           id="g1259">
          <text
             xml:space="preserve"
             style="font-style:normal;font-variant:normal;font-weight:normal;font-stretch:normal;font-size:10.58333302px;line-height:1.25;font-family:'Source Sans Pro';-inkscape-font-specification:'Source Sans Pro';letter-spacing:0px;word-spacing:0px;fill:#777777;fill-opacity:1;stroke:none;stroke-width:0.26458332"
             x="10.957447"
             y="278.54068"
             id="text921"><tspan
               sodipodi:role="line"
               id="tspan919"
               x="10.957447"
               y="278.54068"
               style="font-size:2.82222223px;fill:#777777;fill-opacity:1;stroke-width:0.26458332">(11) 15 4095-4928</tspan></text>
          <path
             style="fill:#aaaaaa;fill-opacity:1;stroke-width:0.00516731"
             inkscape:connector-curvature="0"
             d="m 10.030491,276.53347 -0.5374003,-0.124 c -0.058391,-0.014 -0.1183314,0.018 -0.1421012,0.0718 l -0.2480309,0.57874 c -0.021703,0.0506 -0.00723,0.10999 0.035655,0.14459 l 0.313139,0.25629 c -0.1860232,0.39634 -0.511047,0.72601 -0.9156474,0.91564 L 8.2798066,278.0634 c -0.035138,-0.0428 -0.094045,-0.0574 -0.1446846,-0.0356 l -0.5787388,0.24803 c -0.05529,0.0244 -0.085777,0.0842 -0.072342,0.1426 l 0.1240156,0.53739 c 0.012917,0.0558 0.062525,0.0962 0.120915,0.0962 1.3233482,0 2.3976322,-1.07221 2.3976322,-2.39764 0,-0.058 -0.03979,-0.10799 -0.09611,-0.12099 z"
             id="path995" />
        </g>
        <g
           id="g1254"
           transform="translate(25.513391,-3.4017857)">
          <text
             id="text1012-35"
             y="281.75415"
             x="11.040724"
             style="font-style:normal;font-variant:normal;font-weight:normal;font-stretch:normal;font-size:10.58333302px;line-height:1.25;font-family:'Source Sans Pro';-inkscape-font-specification:'Source Sans Pro';letter-spacing:0px;word-spacing:0px;fill:#777777;fill-opacity:1;stroke:none;stroke-width:0.26458332"
             xml:space="preserve"><tspan
               style="font-size:2.82222223px;fill:#777777;fill-opacity:1;stroke-width:0.26458332"
               y="281.75415"
               x="11.040724"
               id="tspan1010-62"
               sodipodi:role="line">www.tortasmargo.com </tspan></text>
          <path
             style="fill:#aaaaaa;fill-opacity:1;stroke-width:0.00533434"
             inkscape:connector-curvature="0"
             d="m 9.275893,280.46484 c -0.077348,-0.47636 -0.2597825,-0.81082 -0.4720893,-0.81082 -0.2123067,0 -0.3947412,0.33446 -0.4720892,0.81082 z m -0.9841861,0.51209 c 0,0.11843 0.0064,0.23205 0.017603,0.3414 h 0.9884535 c 0.011202,-0.10935 0.017603,-0.22297 0.017603,-0.3414 0,-0.11842 -0.0064,-0.23204 -0.017603,-0.34139 H 8.3093103 c -0.011202,0.10935 -0.017603,0.22297 -0.017603,0.34139 z m 1.7320611,-0.51209 c -0.1525625,-0.3622 -0.4614208,-0.64226 -0.8428263,-0.75534 0.1301579,0.1803 0.2197749,0.45181 0.2667171,0.75534 z M 8.4261324,279.7095 c -0.380872,0.11308 -0.6902638,0.39314 -0.8422925,0.75534 h 0.5761088 c 0.046409,-0.30353 0.1360257,-0.57504 0.2661837,-0.75534 z m 1.6547126,0.92604 H 9.4689961 c 0.011202,0.11202 0.017603,0.22671 0.017603,0.34139 0,0.11469 -0.0064,0.22938 -0.017603,0.3414 h 0.6113159 c 0.02934,-0.10935 0.04588,-0.22297 0.04588,-0.3414 0,-0.11842 -0.01654,-0.23204 -0.04534,-0.34139 z m -1.959837,0.34139 c 0,-0.11468 0.0064,-0.22937 0.017603,-0.34139 H 7.526762 c -0.028805,0.10935 -0.045875,0.22297 -0.045875,0.34139 0,0.11843 0.01707,0.23205 0.045875,0.3414 h 0.6113155 c -0.010669,-0.11202 -0.01707,-0.22671 -0.017069,-0.3414 z m 0.2107065,0.5121 c 0.077348,0.47636 0.2597825,0.81082 0.4720892,0.81082 0.2123068,0 0.3947413,-0.33446 0.4720893,-0.81082 z m 0.8497606,0.75534 c 0.3808721,-0.11308 0.6902638,-0.39314 0.8428259,-0.75534 H 9.4481922 c -0.046942,0.30353 -0.1365591,0.57504 -0.2667171,0.75534 z m -1.5976352,-0.75534 c 0.1525621,0.3622 0.4614205,0.64226 0.8428259,0.75534 -0.1301579,-0.1803 -0.2197749,-0.45181 -0.2667171,-0.75534 z"
             id="path1124" />
        </g>
      </g>
    </g>
  </g>
  <style
     id="style3901"
     type="text/css">
	.st0{display:none;}
	.st1{display:inline;}
	.st2{fill:#FFFFFF;stroke:#000000;stroke-width:0.1;stroke-miterlimit:10;}
	.st3{fill:none;stroke:#000000;stroke-width:0.1;stroke-miterlimit:10;}
</style>
</svg>
