<?xml version="1.0" encoding="UTF-8" standalone="no"?>
<svg
   xmlns:dc="http://purl.org/dc/elements/1.1/"
   xmlns:cc="http://creativecommons.org/ns#"
   xmlns:rdf="http://www.w3.org/1999/02/22-rdf-syntax-ns#"
   xmlns:svg="http://www.w3.org/2000/svg"
   xmlns="http://www.w3.org/2000/svg"
   xmlns:sodipodi="http://sodipodi.sourceforge.net/DTD/sodipodi-0.dtd"
   xmlns:inkscape="http://www.inkscape.org/namespaces/inkscape"
   version="1.1"
   x="0px"
   y="0px"
   viewBox="0 0 500 500"
   xml:space="preserve"
   id="svg144"
   sodipodi:docname="favicon.svg"
   width="500"
   height="500"
   inkscape:export-filename="/home/ealmansi/dev/ealmansi/tortasmargo/static/images/assets/favicon.ico.png"
   inkscape:export-xdpi="23.040001"
   inkscape:export-ydpi="23.040001"
   inkscape:version="0.92.3 (2405546, 2018-03-11)"><metadata
     id="metadata150"><rdf:RDF><cc:Work
         rdf:about=""><dc:format>image/svg+xml</dc:format><dc:type
           rdf:resource="http://purl.org/dc/dcmitype/StillImage" /><dc:title></dc:title></cc:Work></rdf:RDF></metadata><defs
     id="defs148" /><sodipodi:namedview
     pagecolor="#ffffff"
     bordercolor="#666666"
     borderopacity="1"
     objecttolerance="10"
     gridtolerance="10"
     guidetolerance="10"
     inkscape:pageopacity="0"
     inkscape:pageshadow="2"
     inkscape:window-width="3840"
     inkscape:window-height="2031"
     id="namedview146"
     showgrid="false"
     fit-margin-top="0"
     fit-margin-left="0"
     fit-margin-right="0"
     fit-margin-bottom="0"
     inkscape:zoom="2.95"
     inkscape:cx="163.57087"
     inkscape:cy="259.22032"
     inkscape:window-x="0"
     inkscape:window-y="55"
     inkscape:window-maximized="1"
     inkscape:current-layer="layer1" /><style
     type="text/css"
     id="style2">
	.st0{display:none;}
	.st1{display:inline;}
	.st2{fill:#FFFFFF;stroke:#000000;stroke-width:0.1;stroke-miterlimit:10;}
	.st3{fill:none;stroke:#000000;stroke-width:0.1;stroke-miterlimit:10;}
</style><g
     class="st0"
     id="g132"
     style="display:none"
     transform="translate(-6,-6)"><g
       class="st1"
       id="g130"
       style="display:inline"><rect
         class="st2"
         width="512"
         height="512"
         id="rect4"
         x="0"
         y="0"
         style="fill:#ffffff;stroke:#000000;stroke-width:0.1;stroke-miterlimit:10" /><line
         class="st3"
         x1="0"
         y1="496"
         x2="512"
         y2="496"
         id="line6"
         style="fill:none;stroke:#000000;stroke-width:0.1;stroke-miterlimit:10" /><line
         class="st3"
         x1="0"
         y1="480"
         x2="512"
         y2="480"
         id="line8"
         style="fill:none;stroke:#000000;stroke-width:0.1;stroke-miterlimit:10" /><line
         class="st3"
         x1="0"
         y1="464"
         x2="512"
         y2="464"
         id="line10"
         style="fill:none;stroke:#000000;stroke-width:0.1;stroke-miterlimit:10" /><line
         class="st3"
         x1="0"
         y1="448"
         x2="512"
         y2="448"
         id="line12"
         style="fill:none;stroke:#000000;stroke-width:0.1;stroke-miterlimit:10" /><line
         class="st3"
         x1="0"
         y1="432"
         x2="512"
         y2="432"
         id="line14"
         style="fill:none;stroke:#000000;stroke-width:0.1;stroke-miterlimit:10" /><line
         class="st3"
         x1="0"
         y1="416"
         x2="512"
         y2="416"
         id="line16"
         style="fill:none;stroke:#000000;stroke-width:0.1;stroke-miterlimit:10" /><line
         class="st3"
         x1="0"
         y1="400"
         x2="512"
         y2="400"
         id="line18"
         style="fill:none;stroke:#000000;stroke-width:0.1;stroke-miterlimit:10" /><line
         class="st3"
         x1="0"
         y1="384"
         x2="512"
         y2="384"
         id="line20"
         style="fill:none;stroke:#000000;stroke-width:0.1;stroke-miterlimit:10" /><line
         class="st3"
         x1="0"
         y1="368"
         x2="512"
         y2="368"
         id="line22"
         style="fill:none;stroke:#000000;stroke-width:0.1;stroke-miterlimit:10" /><line
         class="st3"
         x1="0"
         y1="352"
         x2="512"
         y2="352"
         id="line24"
         style="fill:none;stroke:#000000;stroke-width:0.1;stroke-miterlimit:10" /><line
         class="st3"
         x1="0"
         y1="336"
         x2="512"
         y2="336"
         id="line26"
         style="fill:none;stroke:#000000;stroke-width:0.1;stroke-miterlimit:10" /><line
         class="st3"
         x1="0"
         y1="320"
         x2="512"
         y2="320"
         id="line28"
         style="fill:none;stroke:#000000;stroke-width:0.1;stroke-miterlimit:10" /><line
         class="st3"
         x1="0"
         y1="304"
         x2="512"
         y2="304"
         id="line30"
         style="fill:none;stroke:#000000;stroke-width:0.1;stroke-miterlimit:10" /><line
         class="st3"
         x1="0"
         y1="288"
         x2="512"
         y2="288"
         id="line32"
         style="fill:none;stroke:#000000;stroke-width:0.1;stroke-miterlimit:10" /><line
         class="st3"
         x1="0"
         y1="272"
         x2="512"
         y2="272"
         id="line34"
         style="fill:none;stroke:#000000;stroke-width:0.1;stroke-miterlimit:10" /><line
         class="st3"
         x1="0"
         y1="256"
         x2="512"
         y2="256"
         id="line36"
         style="fill:none;stroke:#000000;stroke-width:0.1;stroke-miterlimit:10" /><line
         class="st3"
         x1="0"
         y1="240"
         x2="512"
         y2="240"
         id="line38"
         style="fill:none;stroke:#000000;stroke-width:0.1;stroke-miterlimit:10" /><line
         class="st3"
         x1="0"
         y1="224"
         x2="512"
         y2="224"
         id="line40"
         style="fill:none;stroke:#000000;stroke-width:0.1;stroke-miterlimit:10" /><line
         class="st3"
         x1="0"
         y1="208"
         x2="512"
         y2="208"
         id="line42"
         style="fill:none;stroke:#000000;stroke-width:0.1;stroke-miterlimit:10" /><line
         class="st3"
         x1="0"
         y1="192"
         x2="512"
         y2="192"
         id="line44"
         style="fill:none;stroke:#000000;stroke-width:0.1;stroke-miterlimit:10" /><line
         class="st3"
         x1="0"
         y1="176"
         x2="512"
         y2="176"
         id="line46"
         style="fill:none;stroke:#000000;stroke-width:0.1;stroke-miterlimit:10" /><line
         class="st3"
         x1="0"
         y1="160"
         x2="512"
         y2="160"
         id="line48"
         style="fill:none;stroke:#000000;stroke-width:0.1;stroke-miterlimit:10" /><line
         class="st3"
         x1="0"
         y1="144"
         x2="512"
         y2="144"
         id="line50"
         style="fill:none;stroke:#000000;stroke-width:0.1;stroke-miterlimit:10" /><line
         class="st3"
         x1="0"
         y1="128"
         x2="512"
         y2="128"
         id="line52"
         style="fill:none;stroke:#000000;stroke-width:0.1;stroke-miterlimit:10" /><line
         class="st3"
         x1="0"
         y1="112"
         x2="512"
         y2="112"
         id="line54"
         style="fill:none;stroke:#000000;stroke-width:0.1;stroke-miterlimit:10" /><line
         class="st3"
         x1="0"
         y1="96"
         x2="512"
         y2="96"
         id="line56"
         style="fill:none;stroke:#000000;stroke-width:0.1;stroke-miterlimit:10" /><line
         class="st3"
         x1="0"
         y1="80"
         x2="512"
         y2="80"
         id="line58"
         style="fill:none;stroke:#000000;stroke-width:0.1;stroke-miterlimit:10" /><line
         class="st3"
         x1="0"
         y1="64"
         x2="512"
         y2="64"
         id="line60"
         style="fill:none;stroke:#000000;stroke-width:0.1;stroke-miterlimit:10" /><line
         class="st3"
         x1="0"
         y1="48"
         x2="512"
         y2="48"
         id="line62"
         style="fill:none;stroke:#000000;stroke-width:0.1;stroke-miterlimit:10" /><line
         class="st3"
         x1="0"
         y1="32"
         x2="512"
         y2="32"
         id="line64"
         style="fill:none;stroke:#000000;stroke-width:0.1;stroke-miterlimit:10" /><line
         class="st3"
         x1="0"
         y1="16"
         x2="512"
         y2="16"
         id="line66"
         style="fill:none;stroke:#000000;stroke-width:0.1;stroke-miterlimit:10" /><line
         class="st3"
         x1="496"
         y1="0"
         x2="496"
         y2="512"
         id="line68"
         style="fill:none;stroke:#000000;stroke-width:0.1;stroke-miterlimit:10" /><line
         class="st3"
         x1="480"
         y1="0"
         x2="480"
         y2="512"
         id="line70"
         style="fill:none;stroke:#000000;stroke-width:0.1;stroke-miterlimit:10" /><line
         class="st3"
         x1="464"
         y1="0"
         x2="464"
         y2="512"
         id="line72"
         style="fill:none;stroke:#000000;stroke-width:0.1;stroke-miterlimit:10" /><line
         class="st3"
         x1="448"
         y1="0"
         x2="448"
         y2="512"
         id="line74"
         style="fill:none;stroke:#000000;stroke-width:0.1;stroke-miterlimit:10" /><line
         class="st3"
         x1="432"
         y1="0"
         x2="432"
         y2="512"
         id="line76"
         style="fill:none;stroke:#000000;stroke-width:0.1;stroke-miterlimit:10" /><line
         class="st3"
         x1="416"
         y1="0"
         x2="416"
         y2="512"
         id="line78"
         style="fill:none;stroke:#000000;stroke-width:0.1;stroke-miterlimit:10" /><line
         class="st3"
         x1="400"
         y1="0"
         x2="400"
         y2="512"
         id="line80"
         style="fill:none;stroke:#000000;stroke-width:0.1;stroke-miterlimit:10" /><line
         class="st3"
         x1="384"
         y1="0"
         x2="384"
         y2="512"
         id="line82"
         style="fill:none;stroke:#000000;stroke-width:0.1;stroke-miterlimit:10" /><line
         class="st3"
         x1="368"
         y1="0"
         x2="368"
         y2="512"
         id="line84"
         style="fill:none;stroke:#000000;stroke-width:0.1;stroke-miterlimit:10" /><line
         class="st3"
         x1="352"
         y1="0"
         x2="352"
         y2="512"
         id="line86"
         style="fill:none;stroke:#000000;stroke-width:0.1;stroke-miterlimit:10" /><line
         class="st3"
         x1="336"
         y1="0"
         x2="336"
         y2="512"
         id="line88"
         style="fill:none;stroke:#000000;stroke-width:0.1;stroke-miterlimit:10" /><line
         class="st3"
         x1="320"
         y1="0"
         x2="320"
         y2="512"
         id="line90"
         style="fill:none;stroke:#000000;stroke-width:0.1;stroke-miterlimit:10" /><line
         class="st3"
         x1="304"
         y1="0"
         x2="304"
         y2="512"
         id="line92"
         style="fill:none;stroke:#000000;stroke-width:0.1;stroke-miterlimit:10" /><line
         class="st3"
         x1="288"
         y1="0"
         x2="288"
         y2="512"
         id="line94"
         style="fill:none;stroke:#000000;stroke-width:0.1;stroke-miterlimit:10" /><line
         class="st3"
         x1="272"
         y1="0"
         x2="272"
         y2="512"
         id="line96"
         style="fill:none;stroke:#000000;stroke-width:0.1;stroke-miterlimit:10" /><line
         class="st3"
         x1="256"
         y1="0"
         x2="256"
         y2="512"
         id="line98"
         style="fill:none;stroke:#000000;stroke-width:0.1;stroke-miterlimit:10" /><line
         class="st3"
         x1="240"
         y1="0"
         x2="240"
         y2="512"
         id="line100"
         style="fill:none;stroke:#000000;stroke-width:0.1;stroke-miterlimit:10" /><line
         class="st3"
         x1="224"
         y1="0"
         x2="224"
         y2="512"
         id="line102"
         style="fill:none;stroke:#000000;stroke-width:0.1;stroke-miterlimit:10" /><line
         class="st3"
         x1="208"
         y1="0"
         x2="208"
         y2="512"
         id="line104"
         style="fill:none;stroke:#000000;stroke-width:0.1;stroke-miterlimit:10" /><line
         class="st3"
         x1="192"
         y1="0"
         x2="192"
         y2="512"
         id="line106"
         style="fill:none;stroke:#000000;stroke-width:0.1;stroke-miterlimit:10" /><line
         class="st3"
         x1="176"
         y1="0"
         x2="176"
         y2="512"
         id="line108"
         style="fill:none;stroke:#000000;stroke-width:0.1;stroke-miterlimit:10" /><line
         class="st3"
         x1="160"
         y1="0"
         x2="160"
         y2="512"
         id="line110"
         style="fill:none;stroke:#000000;stroke-width:0.1;stroke-miterlimit:10" /><line
         class="st3"
         x1="144"
         y1="0"
         x2="144"
         y2="512"
         id="line112"
         style="fill:none;stroke:#000000;stroke-width:0.1;stroke-miterlimit:10" /><line
         class="st3"
         x1="128"
         y1="0"
         x2="128"
         y2="512"
         id="line114"
         style="fill:none;stroke:#000000;stroke-width:0.1;stroke-miterlimit:10" /><line
         class="st3"
         x1="112"
         y1="0"
         x2="112"
         y2="512"
         id="line116"
         style="fill:none;stroke:#000000;stroke-width:0.1;stroke-miterlimit:10" /><line
         class="st3"
         x1="96"
         y1="0"
         x2="96"
         y2="512"
         id="line118"
         style="fill:none;stroke:#000000;stroke-width:0.1;stroke-miterlimit:10" /><line
         class="st3"
         x1="80"
         y1="0"
         x2="80"
         y2="512"
         id="line120"
         style="fill:none;stroke:#000000;stroke-width:0.1;stroke-miterlimit:10" /><line
         class="st3"
         x1="64"
         y1="0"
         x2="64"
         y2="512"
         id="line122"
         style="fill:none;stroke:#000000;stroke-width:0.1;stroke-miterlimit:10" /><line
         class="st3"
         x1="48"
         y1="0"
         x2="48"
         y2="512"
         id="line124"
         style="fill:none;stroke:#000000;stroke-width:0.1;stroke-miterlimit:10" /><line
         class="st3"
         x1="32"
         y1="0"
         x2="32"
         y2="512"
         id="line126"
         style="fill:none;stroke:#000000;stroke-width:0.1;stroke-miterlimit:10" /><line
         class="st3"
         x1="16"
         y1="0"
         x2="16"
         y2="512"
         id="line128"
         style="fill:none;stroke:#000000;stroke-width:0.1;stroke-miterlimit:10" /></g></g><g
     inkscape:groupmode="layer"
     id="layer1"
     inkscape:label="Layer 1"
     style="display:inline"><g
       id="g982"
       transform="translate(-454.74576,144.57627)"><g
         id="g992"><g
           id="g136"
           transform="translate(448.74576,-150.57627)"><path
             d="M 256,506 C 189.2,506 126.4,480 79.2,432.8 32,385.6 6,322.8 6,256 6,189.2 32,126.4 79.2,79.2 126.4,32 189.2,6 256,6 322.8,6 385.6,32 432.8,79.2 480,126.4 506,189.2 506,256 506,322.8 480,385.6 432.8,432.8 385.6,480 322.8,506 256,506 Z M 256,22 C 127,22 22,127 22,256 22,385 127,490 256,490 385,490 490,385 490,256 490,127 385,22 256,22 Z"
             id="path134"
             inkscape:connector-curvature="0" /></g><path
           d="m 837.64576,205.32373 -0.2,-41.7 c 0,-11.8 -9.6,-21.4 -21.4,-21.4 h -20.6 V 99.923728 c 0,-11.4 -9.3,-20.7 -20.7,-20.7 h -63.2 v -28.8 l 20,-20 0.7,-0.7 c 8.3,-9 8,-22.7999998 -0.7,-31.2999998 -7.1,-7.1 -18.1,-8.6000002 -26.7,-4 -8.8,-4.6000002 -19.7,-3.1 -26.7,4 -8.6,8.6 -8.9,22.1999998 -0.8,31.0999998 0.3,0.4 0.7,0.8 1.2,1.2 l 19.3,19.3 v 29.2 h -63.3 c -11.4,0 -20.7,9.3 -20.7,20.7 v 42.300002 h -20.7 c -11.8,0 -21.4,9.6 -21.4,21.4 v 41.7 h -17 v 13.7 h 300 v -13.7 z m -115.6,-197.2000018 c 3.3,3.1999998 3.5,8.4999998 0.5,12.0999998 l -17.5,17.5 -17.5,-17.3 c -3.3,-3.5 -3.1,-8.9 0.4,-12.2999998 v 0 c 1.7,-1.7 4,-2.6 6.3,-2.6 2.2,0 4.3,0.8 6,2.3 l 4.6,4.2999998 4.6,-4.2999998 c 3.7,-3.3 9,-3.2 12.6,0.3 z m -94.5,134.2000018 v -42.3 c 0,-3.800002 3.1,-7.000002 7,-7.000002 h 140.3 c 3.8,0 7,3.1 7,7.000002 v 42.3 z m 196.4,63 h -238.4 v -41.7 c 0,-4.3 3.4,-7.6 7.6,-7.6 h 222.9 c 4.3,0 7.6,3.4 7.6,7.7 z"
           id="path138"
           inkscape:connector-curvature="0" /></g></g></g></svg>